<svg class="svg-icon" style="width: 1em; height: 1em;vertical-align: middle;fill: currentColor;overflow: hidden;" viewBox="0 0 1024 1024" version="1.1" xmlns="http://www.w3.org/2000/svg"><path d="M522.88 812.16c-164.48 0-321.28-78.72-419.2-211.2-35.2-47.36-35.2-111.36 0-158.72 97.92-131.84 254.72-211.2 419.2-211.2s321.28 78.72 419.2 211.2c35.2 47.36 35.2 111.36 0 158.72-97.92 131.84-254.72 211.2-419.2 211.2z m0-516.48c-146.56 0-280.32 67.2-368 184.96-18.56 24.32-18.56 57.6 0 82.56 87.68 117.76 221.44 184.96 368 184.96s280.32-67.2 368-184.96c18.56-24.32 18.56-57.6 0-82.56-87.68-117.76-221.44-184.96-368-184.96z" fill="#515151" /><path d="M518.4 676.48c-86.4 0-156.8-70.4-156.8-156.8s70.4-156.8 156.8-156.8 156.8 70.4 156.8 156.8-70.4 156.8-156.8 156.8z m0-248.96c-51.2 0-92.8 41.6-92.8 92.8S467.2 612.48 518.4 612.48s92.8-41.6 92.8-92.8S569.6 427.52 518.4 427.52z" fill="#515151" /></svg>